{
	"asset":{
		"version":"2.0",
		"generator":"Houdini GLTF 2.0 Exporter"
	},
	"accessors":[
		{
			"bufferView":0,
			"componentType":5123,
			"count":17400,
			"type":"SCALAR",
			"min":[0
			],
			"max":[17399
			]
		},
		{
			"bufferView":1,
			"componentType":5126,
			"count":17400,
			"type":"VEC3",
			"min":[-30.351141,-8.04778099,-29.2280445
			],
			"max":[30.3203526,41.5720673,25.4444103
			]
		},
		{
			"bufferView":2,
			"componentType":5126,
			"count":17400,
			"type":"VEC3",
			"min":[-0.999447346,-0.999980032,-0.999852777
			],
			"max":[0.99972713,0.999830902,0.999999523
			]
		},
		{
			"bufferView":3,
			"componentType":5126,
			"count":17400,
			"type":"VEC2",
			"min":[0.0086546829,0.0096565485
			],
			"max":[0.989946067,0.979019225
			]
		}
	],
	"buffers":[
		{
			"uri":"model_data.bin",
			"byteLength":591600,
			"name":"main_buffer"
		}
	],
	"bufferViews":[
		{
			"buffer":0,
			"byteLength":34800,
			"target":34963
		},
		{
			"buffer":0,
			"byteOffset":34800,
			"byteLength":208800,
			"target":34962
		},
		{
			"buffer":0,
			"byteOffset":243600,
			"byteLength":208800,
			"target":34962
		},
		{
			"buffer":0,
			"byteOffset":452400,
			"byteLength":139200,
			"target":34962
		}
	],
	"nodes":[
		{
			"name":"geo1",
			"mesh":0
		}
	],
	"meshes":[
		{
			"primitives":[
				{
					"attributes":{
						"TEXCOORD_0":3,
						"NORMAL":2,
						"POSITION":1
					},
					"indices":0,
					"material":0
				}
			]
		}
	],
	"materials":[
		{
			"name":"ToyShader",
			"pbrMetallicRoughness":{
				"baseColorFactor":[0.588,0.588,0.588,1
				],
				"metallicFactor":0,
				"roughnessFactor":0.25,
				"baseColorTexture":{
					"index":0
				},
				"metallicRoughnessTexture":{
					"index":1
				}
			}
		}
	],
	"scenes":[
		{
			"nodes":[0
			]
		}
	],
	"textures":[
		{
			"source":0
		},
		{
			"source":1
		}
	],
	"images":[
		{
			"uri":"testgeometry_rubbertoy_toylowres.png",
			"mimeType":"image/png"
		},
		{
			"uri":"testgeometry_rubbertoy_toyspeclowres.png",
			"mimeType":"image/png"
		}
	],
	"scene":0
}
