{
	"asset":{
		"version":"2.0",
		"generator":"Houdini GLTF 2.0 Exporter"
	},
	"accessors":[
		{
			"bufferView":0,
			"componentType":5123,
			"count":3318,
			"type":"SCALAR",
			"min":[0
			],
			"max":[3317
			]
		},
		{
			"bufferView":1,
			"componentType":5126,
			"count":3318,
			"type":"VEC3",
			"min":[-1.002509,-0.265779465,-0.966539681
			],
			"max":[1.01413453,1.3759793,0.857040882
			]
		},
		{
			"bufferView":2,
			"componentType":5126,
			"count":3318,
			"type":"VEC3",
			"min":[-0.995994866,-0.999717712,-0.999303937
			],
			"max":[0.997826159,0.999544203,0.999989331
			]
		},
		{
			"bufferView":3,
			"componentType":5126,
			"count":3318,
			"type":"VEC2",
			"min":[0.00866234954,0.0082809329
			],
			"max":[0.988577187,0.979277492
			]
		}
	],
	"buffers":[
		{
			"uri":"model_data.bin",
			"byteLength":112812,
			"name":"main_buffer"
		}
	],
	"bufferViews":[
		{
			"buffer":0,
			"byteLength":6636,
			"target":34963
		},
		{
			"buffer":0,
			"byteOffset":6636,
			"byteLength":39816,
			"target":34962
		},
		{
			"buffer":0,
			"byteOffset":46452,
			"byteLength":39816,
			"target":34962
		},
		{
			"buffer":0,
			"byteOffset":86268,
			"byteLength":26544,
			"target":34962
		}
	],
	"nodes":[
		{
			"name":"geo1",
			"mesh":0
		}
	],
	"meshes":[
		{
			"primitives":[
				{
					"attributes":{
						"TEXCOORD_0":3,
						"NORMAL":2,
						"POSITION":1
					},
					"indices":0,
					"material":0
				}
			]
		}
	],
	"materials":[
		{
			"name":"ToyShader",
			"pbrMetallicRoughness":{
				"baseColorFactor":[0.588,0.588,0.588,1
				],
				"metallicFactor":0,
				"roughnessFactor":0.25,
				"baseColorTexture":{
					"index":0
				},
				"metallicRoughnessTexture":{
					"index":1
				}
			}
		}
	],
	"scenes":[
		{
			"nodes":[0
			]
		}
	],
	"textures":[
		{
			"source":0
		},
		{
			"source":1
		}
	],
	"images":[
		{
			"uri":"testgeometry_rubbertoy_toylowres.png",
			"mimeType":"image/png"
		},
		{
			"uri":"testgeometry_rubbertoy_toyspeclowres.png",
			"mimeType":"image/png"
		}
	],
	"scene":0
}
